<svg xmlns="http://www.w3.org/2000/svg" viewBox="0 0 225 177"><path d="M167.41 87h-13.997V64.392a2.358 2.358 0 0 1 .726-1.691 2.52 2.52 0 0 1 1.75-.702h9.046a2.52 2.52 0 0 1 1.749.702c.464.449.725 1.057.726 1.691V87z" fill="#fff"/><path d="M91.424 97c14.356 0 25.995-11.641 25.995-26S105.78 45 91.424 45 65.43 56.641 65.43 71s11.638 26 25.994 26z" fill="#f5f4f8"/><path d="M160.97 58c-2.338-.073-4.419-2.189-4.436-4.51s2.034-4.467 4.371-4.573c5.202-.236 9.462-5.777 8.317-10.819s-7.388-8.235-12.19-6.233c-3.684 1.535-7.406-3.302-6.472-7.157s4.466-6.444 7.735-8.724 6.766-4.956 7.555-8.843S162.6-1.402 159.041.4" fill="#d5d2dc"/><path d="M173.02 176H70.82c-.634-.001-1.241-.251-1.689-.695s-.7-1.048-.701-1.677v-69.256c.001-.629.253-1.232.701-1.677s1.055-.694 1.689-.695h102.2a2.404 2.404 0 0 1 1.689.695 2.37 2.37 0 0 1 .701 1.677v69.256a2.37 2.37 0 0 1-.701 1.677 2.404 2.404 0 0 1-1.689.695z" fill="#fff"/><path d="M173.02 176H70.82c-.634-.001-1.241-.251-1.689-.695s-.7-1.048-.701-1.677v-69.256c.001-.629.253-1.232.701-1.677s1.055-.694 1.689-.695h102.2a2.404 2.404 0 0 1 1.689.695 2.37 2.37 0 0 1 .701 1.677v69.256a2.37 2.37 0 0 1-.701 1.677 2.404 2.404 0 0 1-1.689.695zm-102.2-73.473a1.87 1.87 0 0 0-1.314.541 1.84 1.84 0 0 0-.545 1.304v69.256a1.84 1.84 0 0 0 .545 1.304 1.87 1.87 0 0 0 1.314.541h102.2a1.87 1.87 0 0 0 1.314-.541c.348-.346.544-.815.545-1.304v-69.256a1.844 1.844 0 0 0-.545-1.304 1.87 1.87 0 0 0-1.314-.541H70.82z" fill="#454056"/><path d="M133.42 176h-22.995v-39.469c.001-.936.36-1.834.998-2.496A3.35 3.35 0 0 1 113.83 133h16.184a3.348 3.348 0 0 1 2.407 1.035 3.6 3.6 0 0 1 .999 2.496V176zm30.99-31h-19.982c-.797-.001-1.561-.325-2.125-.902s-.88-1.358-.881-2.173v-16.85a3.116 3.116 0 0 1 .881-2.173 2.98 2.98 0 0 1 2.125-.902h19.982c.797.001 1.561.325 2.125.902s.88 1.358.881 2.173v16.85a3.116 3.116 0 0 1-.881 2.173 2.98 2.98 0 0 1-2.125.902z" fill="#d5d2dc"/><path d="M100.42 145H80.438c-.797-.001-1.561-.325-2.125-.902s-.881-1.358-.882-2.173v-16.85c.001-.815.318-1.597.882-2.173s1.328-.901 2.125-.902h19.982c.797.001 1.561.325 2.125.902s.88 1.358.881 2.173v16.85c-.001.815-.318 1.597-.881 2.173s-1.328.901-2.125.902z" fill="#fdbc31"/><path d="M167.41 87h-13.997V64.392a2.358 2.358 0 0 1 .726-1.691 2.52 2.52 0 0 1 1.75-.702h9.046a2.52 2.52 0 0 1 1.749.702c.464.449.725 1.057.726 1.691V87zm-13.447-.532h12.897V64.392a1.834 1.834 0 0 0-.565-1.315 1.96 1.96 0 0 0-1.36-.546h-9.046a1.96 1.96 0 0 0-1.361.546 1.834 1.834 0 0 0-.565 1.315v22.076z" fill="#454056"/><path d="M60.434 103.34V92.641a4.658 4.658 0 0 1 2.352-4.048l59.527-33.976a4.67 4.67 0 0 1 4.828.117l53.108 33.827a4.67 4.67 0 0 1 1.584 1.689 4.66 4.66 0 0 1 .575 2.242v10.849a4.656 4.656 0 0 1-1.368 3.296 4.67 4.67 0 0 1-3.301 1.366H65.099a4.67 4.67 0 0 1-3.301-1.366 4.655 4.655 0 0 1-1.367-3.296z" fill="#f9f8fa"/><path d="M61.134 92.639v10.699a3.96 3.96 0 0 0 1.162 2.801 3.973 3.973 0 0 0 2.807 1.161h112.64a3.975 3.975 0 0 0 2.807-1.161 3.96 3.96 0 0 0 1.162-2.801V92.489a3.954 3.954 0 0 0-1.835-3.341l-53.108-33.827a3.974 3.974 0 0 0-4.105-.1L63.137 89.198a3.965 3.965 0 0 0-1.463 1.452 3.96 3.96 0 0 0-.536 1.988zm-.7 0v10.699a4.66 4.66 0 0 0 1.367 3.296A4.67 4.67 0 0 0 65.103 108h112.64a4.67 4.67 0 0 0 3.301-1.366 4.656 4.656 0 0 0 1.368-3.296V92.489a4.66 4.66 0 0 0-.575-2.242 4.67 4.67 0 0 0-1.584-1.689l-53.108-33.827a4.68 4.68 0 0 0-4.828-.117L62.79 88.59a4.661 4.661 0 0 0-2.352 4.048z" fill="#454056" fill-rule="evenodd"/><path d="M177.74 103.72H65.1a4.642 4.642 0 0 1-3.301-1.382 4.74 4.74 0 0 1-1.367-3.335v4.283a4.74 4.74 0 0 0 1.367 3.335 4.644 4.644 0 0 0 3.301 1.382h112.64a4.642 4.642 0 0 0 3.301-1.382 4.74 4.74 0 0 0 1.368-3.335v-4.283a4.74 4.74 0 0 1-1.368 3.335 4.642 4.642 0 0 1-3.301 1.382z" fill="#1f1b2d" opacity=".2"/><path d="M202.14 133a.254.254 0 0 1-.177-.075l-6.473-6.429a.298.298 0 0 1-.07-.308.295.295 0 0 1 .053-.095.266.266 0 0 1 .182-.093c.034-.002.069.004.102.017s.062.033.087.058l6.473 6.43a.287.287 0 0 1 .079.145.31.31 0 0 1-.011.168.28.28 0 0 1-.096.132.247.247 0 0 1-.149.05z" fill="#454056"/><path d="M187.41 139.98c0-8.295 6.715-27.98 14.997-27.98s14.997 19.685 14.997 27.98a15.03 15.03 0 0 1-4.393 10.621 14.983 14.983 0 0 1-21.208 0 15.03 15.03 0 0 1-4.393-10.621z" fill="#f5f4f8"/><g fill="#454056"><path d="M201.9 176c-.132 0-.259-.028-.353-.078s-.147-.117-.147-.187v-53.47c0-.07.053-.138.147-.187s.221-.078.353-.078.26.028.354.078.146.117.146.187v53.47c0 .07-.053.138-.146.187s-.221.078-.354.078z"/><path d="M201.7 146a.33.33 0 0 1-.162-.041.27.27 0 0 1-.109-.111c-.023-.045-.029-.095-.019-.143s.037-.093.077-.128l8.409-7.499c.026-.024.058-.043.094-.057s.073-.02.112-.021a.33.33 0 0 1 .21.069.25.25 0 0 1 .066.08.218.218 0 0 1 .006.192.244.244 0 0 1-.062.082l-8.409 7.499a.295.295 0 0 1-.097.058.35.35 0 0 1-.116.02z"/></g><path d="m191.79 175.94.076.056h21.174c.415-1.705.561-3.411-.058-4.893-.884-2.112-3.497-3.43-5.574-2.523a3.18 3.18 0 0 0-1.246 1c-.812-1.474-2.269-2.585-3.95-2.584-2.106.002-3.857 1.748-4.428 3.765-.92-1.575-2.738-2.675-4.515-2.202-2.971.792-3.91 5.476-1.479 7.381z" fill="#d5d2dc"/><path d="M5.445 123.34c0-11.961 9.848-40.343 21.995-40.343s21.995 28.382 21.995 40.343c0 5.744-2.317 11.252-6.442 15.314s-9.72 6.343-15.553 6.343-11.428-2.282-15.553-6.343-6.442-9.57-6.442-15.314z" fill="#f5f4f8"/><g fill="#454056"><path d="M27.941 176c-.133 0-.26-.028-.354-.077s-.146-.115-.146-.184V98.261c0-.069.053-.136.146-.185s.221-.076.354-.076.26.028.354.076.146.115.146.185v77.478c0 .069-.053.135-.146.184s-.221.077-.354.077z"/><path d="M27.714 132a.274.274 0 0 1-.251-.158.247.247 0 0 1 .053-.282l11.452-11.479a.28.28 0 0 1 .386-.009.25.25 0 0 1 .084.182.257.257 0 0 1-.075.186l-11.452 11.479a.263.263 0 0 1-.09.06.28.28 0 0 1-.107.021zm.438-19a.288.288 0 0 1-.194-.074l-10.423-9.432a.283.283 0 0 1 .181-.494.29.29 0 0 1 .207.074l10.423 9.432a.28.28 0 0 1 .086.145.284.284 0 0 1-.28.349z"/></g><path d="m7.278 176.88.154.117h43.269c.848-3.599 1.147-7.201-.119-10.33-1.804-4.458-7.144-7.24-11.39-5.326a6.543 6.543 0 0 0-2.546 2.11c-1.659-3.111-4.635-5.457-8.07-5.454-4.304.003-7.882 3.69-9.05 7.949-1.88-3.325-5.595-5.649-9.225-4.649-6.072 1.672-7.99 11.561-3.022 15.583z" fill="#d5d2dc"/><path d="m225 175.73-225 .425.001.529 225-.425-.001-.529z" fill="#454056"/><path d="M193.42 119.54c15.206 0 27.533-12.33 27.533-27.539s-12.327-27.539-27.533-27.539-27.533 12.33-27.533 27.539 12.327 27.539 27.533 27.539z" fill="#1f1b2d"/><path d="M210.76 89.288h-14.616v-14.62h-5.439v14.62h-14.616v5.44h14.616v14.62h5.439v-14.62h14.616v-5.44z" fill="#fff"/></svg>